<svg data-v-423bf9ae="" xmlns="http://www.w3.org/2000/svg" viewBox="0 0 34.034988102676046 60" class="icon"><!----><!----><!----><!----><g data-v-423bf9ae="" id="f53f61d2-55ea-4b06-af43-a0ec5ae186ca" transform="matrix(0.2786395150169037,0,0,0.2786395150169037,-2.7727364085079174,-9.467059835684488)" stroke="none" fill="black"><path d="M131.87 208.532c-.006-3.069-.091-6.716-.67-10.488a37.656 37.656 0 0 0-2.907-9.813 39.3 39.3 0 0 0-2.752-5.017c-1.52-2.362-9.17-10.559-27.288-29.234a619.596 619.596 0 0 1-3.246-3.355l-1.355-1.428a49.338 49.338 0 0 1-.904-.978 25.193 25.193 0 0 1-1.338-1.589c-.638-.822-1.059-1.452-1.364-2.04-.403-.779-.613-1.333-.68-1.797-.096-.668-.084-1.488-.07-2.357l.004-.274c.012-.949.036-1.787.197-2.421.122-.477.395-1.007.857-1.671.605-.869 1.262-1.784 1.959-2.585.665-.764 1.376-1.509 2.128-2.299l.566-.594c.434-.457 1.6-1.659 3.232-3.343 18.128-18.684 25.781-26.884 27.302-29.248a39.278 39.278 0 0 0 2.752-5.017 37.615 37.615 0 0 0 2.907-9.811c.579-3.775.664-7.422.67-10.491.011-5.005.005-12.872-.001-18.423a6.826 6.826 0 0 0 .229-1.669c0-12.09-31.467-18.614-61.073-18.614-29.607 0-61.074 6.524-61.074 18.614 0 .558.089 1.101.22 1.634-.006 5.553-.011 13.442-.001 18.458.006 2.886.087 6.688.67 10.491a37.701 37.701 0 0 0 2.908 9.813 39.472 39.472 0 0 0 2.752 5.015c1.52 2.364 9.174 10.564 27.301 29.248a695.353 695.353 0 0 1 3.234 3.344l.541.567a70.408 70.408 0 0 1 2.153 2.325c.694.797 1.351 1.713 1.959 2.586.462.663.734 1.193.856 1.669.162.632.185 1.438.199 2.421l.004.263c.013.872.025 1.696-.072 2.369-.066.463-.276 1.017-.679 1.795-.306.589-.727 1.219-1.366 2.043a25.422 25.422 0 0 1-1.336 1.587c-.297.33-.601.655-.898.971-.07.074-.389.4-.907.935-28.695 29.521-30.422 32.207-30.989 33.09a39.378 39.378 0 0 0-2.753 5.017 37.685 37.685 0 0 0-2.907 9.812c-.583 3.803-.664 7.603-.67 10.489a8410.86 8410.86 0 0 0 .002 20.093c0 14.21 31.544 20.683 60.853 20.683 29.308 0 60.852-6.473 60.852-20.683l-.005-2.743c.003-5.456.008-12.662-.002-17.35zm-8.275 20.088v.149c-.45 3.787-18.323 12.265-52.57 12.265-34.691 0-52.58-8.698-52.58-12.414-.006-5.524-.014-14.547-.002-20.071.005-2.758.077-6.014.574-9.252a29.39 29.39 0 0 1 2.266-7.655 31.056 31.056 0 0 1 2.171-3.948c.483-.726 4.07-5.162 29.966-31.804a60.724 60.724 0 0 0 2.017-2.132c.364-.404.722-.814 1.069-1.234.225-.271.445-.546.659-.822.595-.767 1.467-1.941 2.173-3.307.572-1.104 1.262-2.604 1.523-4.426.189-1.316.171-2.564.155-3.665l-.004-.257c-.021-1.435-.07-2.849-.457-4.357-.37-1.447-1.052-2.87-2.083-4.349-.739-1.062-1.556-2.196-2.507-3.289a75.495 75.495 0 0 0-2.406-2.602l-.525-.552a665.752 665.752 0 0 0-3.298-3.411c-16.272-16.773-25.114-26.181-26.279-27.961a31.173 31.173 0 0 1-2.174-3.953 29.394 29.394 0 0 1-2.267-7.656c-.497-3.239-.569-6.495-.574-9.253a4142.97 4142.97 0 0 1-.005-10.261c11.351 5.764 32.396 8.8 52.587 8.8 20.185 0 41.226-3.035 52.578-8.796.002 3.71.001 7.438-.006 10.257-.006 2.761-.077 6.02-.574 9.254a29.344 29.344 0 0 1-2.267 7.655 31.178 31.178 0 0 1-2.174 3.951c-1.166 1.782-10.008 11.19-26.279 27.963a599.769 599.769 0 0 0-3.299 3.411l-.551.578c-.782.821-1.592 1.67-2.382 2.577-.954 1.098-1.769 2.229-2.505 3.286-1.032 1.481-1.715 2.904-2.085 4.354-.387 1.515-.437 2.925-.456 4.358l-.003.264c-.017 1.097-.035 2.341.154 3.654.261 1.821.951 3.322 1.522 4.427.707 1.364 1.579 2.539 2.177 3.311a36.715 36.715 0 0 0 1.725 2.051c.34.377.687.749 1.029 1.113L89 156.315c.443.467 1.638 1.698 3.312 3.424 16.265 16.766 25.103 26.169 26.267 27.947a31.244 31.244 0 0 1 2.175 3.953 29.397 29.397 0 0 1 2.267 7.657c.497 3.233.568 6.491.574 9.253.014 5.524.006 14.547 0 20.071z"></path><path d="M114.82 214.857a47.63 47.63 0 0 0-1.115-1.223c-1.732-1.847-3.516-3.642-5.506-5.213-1.967-1.554-4.093-2.896-6.297-4.086-2.289-1.237-4.655-2.335-7.045-3.361-2.41-1.036-4.871-1.929-7.361-2.753-1.222-.403-2.443-.805-3.655-1.234-1.292-.459-2.609-.87-3.838-1.485a14.35 14.35 0 0 1-2.736-1.776c-1.48-1.226-2.73-2.699-3.752-4.325-1.101-1.751-2.153-3.764-2.495-5.821-.341 2.058-1.394 4.07-2.494 5.821-1.022 1.626-2.272 3.1-3.753 4.325a14.373 14.373 0 0 1-2.735 1.776c-1.229.615-2.546 1.026-3.838 1.485-1.212.43-2.434.831-3.655 1.234-2.491.824-4.951 1.717-7.363 2.753-2.389 1.026-4.755 2.124-7.043 3.361-2.205 1.19-4.33 2.532-6.298 4.086-1.989 1.571-3.773 3.366-5.504 5.213-.378.403-.752.807-1.116 1.223-.418.479-.826.966-1.223 1.462-.459.573-.88 1.186-1.173 1.861 0 7.438 20.671 13.469 46.169 13.469 25.497 0 46.168-6.03 46.168-13.469h.056c-.292-.676-.714-1.288-1.173-1.861a47.595 47.595 0 0 0-1.225-1.462zM65.568 123.701a10.26 10.26 0 0 1 1.66 1.898c.898 1.311 1.657 2.885 2.277 4.624.668 1.871 1.307 4.023 1.514 6.223.207-2.2.846-4.352 1.514-6.223.62-1.738 1.38-3.313 2.277-4.624a10.297 10.297 0 0 1 1.66-1.898c.746-.658 1.546-1.098 2.329-1.588.736-.46 1.478-.888 2.219-1.32 1.512-.881 3.004-1.835 4.468-2.942 1.45-1.097 2.887-2.271 4.275-3.592a30.908 30.908 0 0 0 3.822-4.368c1.207-1.68 2.289-3.597 3.341-5.571a45.925 45.925 0 0 0 1.418-2.87c.28-.613.535-1.267.713-1.989 0-7.951-12.545-14.396-28.019-14.396-15.475 0-28.02 6.445-28.02 14.396h-.034c.178.723.433 1.376.712 1.989a46.952 46.952 0 0 0 1.419 2.87c1.051 1.974 2.133 3.892 3.34 5.571a30.908 30.908 0 0 0 3.822 4.368c1.39 1.322 2.825 2.496 4.275 3.592 1.463 1.107 2.956 2.061 4.468 2.942.742.432 1.482.86 2.218 1.32.786.49 1.586.929 2.332 1.588z"></path></g><!----></svg>